<svg width="183" height="48" viewBox="0 0 183 48" fill="none" xmlns="http://www.w3.org/2000/svg">
<path d="M1.98 47.74C1.74 47.74 1.54 47.66 1.38 47.5C1.1 47.22 0.86 46.92 0.66 46.6C0.46 46.28 0.36 45.88 0.36 45.4C0.36 44.76 0.56 43.9 0.96 42.82C1.36 41.78 2.02 40.36 2.94 38.56C4.9 34.76 7.42 30.9 10.5 26.98C13.62 23.06 16.92 19.4 20.4 16C20.76 15.64 21.2 15.34 21.72 15.1C22.24 14.82 22.68 14.5 23.04 14.14C23.24 13.98 23.36 13.86 23.4 13.78C23.44 13.7 23.46 13.64 23.46 13.6V13.54C23.46 13.46 23.48 13.38 23.52 13.3C23.6 13.18 23.74 13.04 23.94 12.88C25.54 11.48 27.06 10.1 28.5 8.74C29.94 7.38 31.32 6.26 32.64 5.38C33.96 4.5 35.24 4.06 36.48 4.06C36.64 4.06 36.78 4.08 36.9 4.12C37.06 4.12 37.22 4.14 37.38 4.18C37.78 4.22 38.1 4.28 38.34 4.36C38.62 4.4 38.76 4.54 38.76 4.78C38.76 5.02 38.52 5.48 38.04 6.16C37.08 7.44 36.22 9.04 35.46 10.96C34.74 12.84 34.1 14.84 33.54 16.96C33.02 19.04 32.56 21.02 32.16 22.9C31.76 24.78 31.42 26.34 31.14 27.58C31.02 28.18 30.96 28.54 30.96 28.66C30.96 28.82 30.98 28.94 31.02 29.02C31.1 29.06 31.16 29.16 31.2 29.32C31.24 29.44 31.34 29.7 31.5 30.1C31.7 30.5 31.8 30.64 31.8 30.52C33.24 29.84 34.64 28.88 36 27.64C37.4 26.4 39 24.84 40.8 22.96C42.64 21.04 44.94 18.76 47.7 16.12C47.98 15.88 48.22 15.72 48.42 15.64C48.62 15.56 48.8 15.44 48.96 15.28C49.04 15.2 49.14 15.04 49.26 14.8C49.38 14.56 49.52 14.38 49.68 14.26C51.32 12.62 52.88 10.94 54.36 9.22C55.84 7.5 57.52 5.84 59.4 4.24C59.56 4.12 59.7 3.92 59.82 3.64C59.98 3.36 60.14 3.14 60.3 2.98C60.38 2.82 60.4 2.66 60.36 2.5C60.36 2.3 60.46 2.1 60.66 1.9C60.82 1.78 61.04 1.68 61.32 1.6C61.64 1.52 61.88 1.4 62.04 1.24C62.36 0.999999 62.78 0.879999 63.3 0.879999C64.02 0.879999 64.72 1.1 65.4 1.54C66.12 1.94 66.48 2.44 66.48 3.04C66.48 3.44 66.32 3.8 66 4.12C65.76 4.4 65.44 4.66 65.04 4.9C64.68 5.1 64.36 5.36 64.08 5.68C63.88 5.96 63.56 6.22 63.12 6.46C62.72 6.66 62.44 6.86 62.28 7.06C60.2 9.46 58.36 11.88 56.76 14.32C55.16 16.72 53.66 19.12 52.26 21.52C51.02 23.72 49.88 25.96 48.84 28.24C47.84 30.48 47.02 32.48 46.38 34.24C45.78 36 45.42 37.26 45.3 38.02C45.26 38.42 45.16 38.86 45 39.34C44.84 39.82 44.8 40.1 44.88 40.18C45 40.34 45.1 40.52 45.18 40.72C45.3 40.96 45.36 41.22 45.36 41.5C45.36 42.06 45.06 42.54 44.46 42.94C44.38 42.98 44.28 43 44.16 43C43.88 43 43.64 42.88 43.44 42.64C43.28 42.4 43.1 42.14 42.9 41.86C42.78 41.58 42.68 41.34 42.6 41.14C42.52 40.94 42.48 40.72 42.48 40.48C42.48 40.24 42.54 39.94 42.66 39.58C42.7 39.54 42.72 39.48 42.72 39.4C42.72 39.2 42.66 39 42.54 38.8C42.42 38.56 42.4 38.3 42.48 38.02C42.68 37.46 42.82 36.72 42.9 35.8C43.02 34.88 43.22 34.1 43.5 33.46C44.14 32.1 44.66 30.8 45.06 29.56C45.46 28.32 45.88 27.1 46.32 25.9C46.76 24.66 47.36 23.46 48.12 22.3C48.12 22.3 48.2 22.04 48.36 21.52C48.52 20.96 48.66 20.58 48.78 20.38L48.84 20.32C49.8 18.88 50.48 17.8 50.88 17.08C51.28 16.36 51.58 15.78 51.78 15.34C51.98 14.9 52.26 14.4 52.62 13.84L52.38 14.08L52.32 14.2C49.64 16.76 47.48 18.84 45.84 20.44C44.24 22 42.96 23.26 42 24.22C41.08 25.18 40.3 25.96 39.66 26.56C39.06 27.16 38.42 27.74 37.74 28.3C37.1 28.82 36.26 29.48 35.22 30.28C34.94 30.48 34.66 30.78 34.38 31.18C34.1 31.54 33.82 31.82 33.54 32.02V31.96C33.22 32.16 32.86 32.42 32.46 32.74C32.06 33.02 31.68 33.26 31.32 33.46C31.16 33.54 30.86 33.64 30.42 33.76C30.02 33.88 29.6 33.94 29.16 33.94C28.68 33.94 28.32 33.84 28.08 33.64C27.84 33.32 27.66 32.84 27.54 32.2C27.46 31.56 27.42 30.94 27.42 30.34C27.42 29.66 27.46 29.12 27.54 28.72C27.86 27.44 28.1 26.5 28.26 25.9C28.42 25.3 28.52 24.9 28.56 24.7C28.64 24.5 28.68 24.38 28.68 24.34C28.68 24.26 28.68 24.12 28.68 23.92C28.68 23.84 28.68 23.7 28.68 23.5C28.68 23.26 28.7 22.98 28.74 22.66C28.78 22.26 28.88 21.66 29.04 20.86C29.2 20.02 29.4 19.2 29.64 18.4C29.92 17.56 30.16 16.96 30.36 16.6C30.44 16.52 30.54 16.2 30.66 15.64C30.78 15.04 30.92 14.38 31.08 13.66C31.24 12.94 31.36 12.3 31.44 11.74C31.52 11.18 31.54 10.88 31.5 10.84C30.98 11.12 29.88 11.9 28.2 13.18C26.52 14.46 24.38 16.4 21.78 19C21.42 19.36 21.02 19.7 20.58 20.02C20.18 20.3 19.8 20.62 19.44 20.98C19.16 21.26 18.72 21.76 18.12 22.48C17.52 23.16 16.92 23.86 16.32 24.58C15.72 25.26 15.28 25.74 15 26.02L12.6 28.66C10.6 30.9 9.04 32.76 7.92 34.24C6.84 35.72 6 36.98 5.4 38.02C4.8 39.02 4.22 39.98 3.66 40.9C3.42 41.22 3.3 41.54 3.3 41.86C3.3 42.18 3.3 42.52 3.3 42.88C3.3 43 3.3 43.12 3.3 43.24C3.3 43.36 3.28 43.48 3.24 43.6C3.12 43.96 3.06 44.48 3.06 45.16C3.1 45.84 3.08 46.34 3 46.66V46.6C2.96 47 2.84 47.28 2.64 47.44C2.44 47.64 2.22 47.74 1.98 47.74ZM55.1639 40.72C54.6839 40.72 54.2839 40.58 53.9639 40.3C53.6439 40.02 53.4839 39.58 53.4839 38.98C53.4839 38.82 53.5039 38.66 53.5439 38.5C53.5439 38.34 53.5639 38.18 53.6039 38.02C53.9239 36.7 54.4639 35.14 55.2239 33.34C55.9839 31.54 56.9839 29.62 58.2239 27.58C59.5039 25.54 61.0839 23.54 62.9639 21.58C64.3639 20.14 65.8639 19.12 67.4639 18.52C69.0639 17.88 70.7639 17.56 72.5639 17.56H72.6239C73.9839 17.56 74.8839 17.92 75.3239 18.64C75.7639 19.32 75.9839 20.02 75.9839 20.74C75.9839 21.58 75.8639 22.24 75.6239 22.72L75.5639 22.78C75.4039 22.94 75.2039 23.02 74.9639 23.02C74.7639 23.02 74.5639 22.94 74.3639 22.78C74.2039 22.62 74.1239 22.4 74.1239 22.12C74.1239 21.72 74.0439 21.38 73.8839 21.1C73.7639 20.82 73.6039 20.58 73.4039 20.38C73.3639 20.3 73.2639 20.26 73.1039 20.26C72.9439 20.22 72.7639 20.2 72.5639 20.2H72.5039C72.3839 20.2 72.2639 20.18 72.1439 20.14C72.0239 20.06 71.9039 20.02 71.7839 20.02C70.2639 20.02 68.3839 21.08 66.1439 23.2C63.8639 25.44 62.1639 27.38 61.0439 29.02C59.9239 30.66 59.1439 32.08 58.7039 33.28C58.3039 34.44 58.0039 35.48 57.8039 36.4C57.7639 36.72 57.8639 36.88 58.1039 36.88C58.5439 36.88 59.0839 36.68 59.7239 36.28C60.4039 35.88 61.1039 35.4 61.8239 34.84C62.5439 34.28 63.2439 33.72 63.9239 33.16C64.6039 32.56 65.1439 32.08 65.5439 31.72C65.7439 31.52 65.9239 31.38 66.0839 31.3C66.2839 31.22 66.4439 31.12 66.5639 31C66.7639 30.84 66.9039 30.68 66.9839 30.52C67.1039 30.36 67.2439 30.22 67.4039 30.1C68.8439 28.86 70.0039 27.88 70.8839 27.16C71.7639 26.4 72.4439 25.8 72.9239 25.36C73.4439 24.92 73.8839 24.54 74.2439 24.22C74.7639 23.7 75.3439 23.44 75.9839 23.44C76.9039 23.44 77.4839 23.94 77.7239 24.94C77.8839 25.5 77.7439 25.9 77.3039 26.14C76.8639 26.34 76.5439 26.58 76.3439 26.86C76.0239 27.26 75.6839 27.86 75.3239 28.66C74.9639 29.42 74.4839 30.34 73.8839 31.42C73.5239 32.1 73.2039 32.86 72.9239 33.7C72.6839 34.5 72.6039 35.1 72.6839 35.5L73.7039 34.84C74.2239 34.6 74.7839 34.4 75.3839 34.24C75.9839 34.04 76.4839 33.8 76.8839 33.52C77.1639 33.36 77.4039 33.28 77.6039 33.28C77.9239 33.28 78.0839 33.42 78.0839 33.7C78.0839 34.02 77.8439 34.34 77.3639 34.66C76.2039 35.5 75.2839 36.1 74.6039 36.46C73.9239 36.78 73.2039 37.32 72.4439 38.08C72.2839 38.24 71.9439 38.62 71.4239 39.22C70.9439 39.78 70.6039 40.12 70.4039 40.24C70.2439 40.32 70.0639 40.36 69.8639 40.36C69.7039 40.4 69.5439 40.42 69.3839 40.42C68.8239 40.42 68.4839 40.36 68.3639 40.24C68.2839 40.16 68.1639 40.08 68.0039 40C67.8839 39.96 67.7839 39.84 67.7039 39.64C67.6239 39.32 67.5839 39.04 67.5839 38.8C67.5839 38.08 67.7639 37.24 68.1239 36.28C68.5239 35.28 69.0439 34.18 69.6839 32.98C70.2039 31.98 70.5839 31.2 70.8239 30.64C71.0639 30.08 71.2439 29.62 71.3639 29.26C71.4839 28.86 71.6239 28.48 71.7839 28.12C71.2239 28.64 70.6439 29.18 70.0439 29.74C69.4439 30.3 68.7439 30.92 67.9439 31.6C67.8239 31.68 67.6639 31.8 67.4639 31.96C67.2639 32.08 67.1239 32.16 67.0439 32.2L65.4239 33.7C64.3039 34.58 63.3039 35.4 62.4239 36.16C61.5439 36.92 60.6439 37.64 59.7239 38.32C58.8039 39 57.7039 39.7 56.4239 40.42C55.9439 40.62 55.5239 40.72 55.1639 40.72ZM82.8192 40.48C82.3792 40.48 82.0792 40.4 81.9192 40.24C81.7992 40.12 81.6992 40.02 81.6192 39.94C81.5792 39.86 81.4992 39.78 81.3792 39.7C81.2192 39.58 81.0192 39.44 80.7792 39.28C80.5392 39.08 80.4192 38.66 80.4192 38.02C80.4192 37.46 80.5392 36.66 80.7792 35.62C81.0592 34.54 81.5792 33.1 82.3392 31.3H82.3992C82.9592 30.46 83.4192 29.6 83.7792 28.72C84.1792 27.8 84.5792 26.98 84.9792 26.26V26.38C84.9792 26.3 85.1992 25.92 85.6392 25.24C86.0792 24.52 86.5992 23.66 87.1992 22.66C87.8392 21.66 88.4792 20.66 89.1192 19.66C89.7592 18.66 90.2992 17.8 90.7392 17.08C91.2192 16.36 91.4792 15.96 91.5192 15.88V15.94C91.5992 15.82 91.7592 15.56 91.9992 15.16C92.2792 14.72 92.4392 14.48 92.4792 14.44H92.4192C92.8192 13.8 93.0792 13.32 93.1992 13C93.3592 12.64 93.5192 12.3 93.6792 11.98C93.8792 11.62 94.2192 11.14 94.6992 10.54L96.7992 7.84C96.9992 7.64 97.2392 7.3 97.5192 6.82C97.8392 6.3 98.1592 5.96 98.4792 5.8C99.0392 5.52 99.7192 5.26 100.519 5.02C101.359 4.78 102.099 4.66 102.739 4.66C103.179 4.66 103.539 4.74 103.819 4.9C104.139 5.02 104.319 5.28 104.359 5.68C104.319 6.28 104.099 6.98 103.699 7.78C103.299 8.54 102.699 9.3 101.899 10.06C101.499 10.46 100.979 10.88 100.339 11.32C99.6992 11.76 99.2192 12.2 98.8992 12.64H98.9592C98.5192 13.28 97.9392 13.88 97.2192 14.44C96.5392 15 96.0192 15.5 95.6592 15.94C95.3792 16.34 95.0192 16.68 94.5792 16.96C94.1392 17.2 93.7992 17.48 93.5592 17.8C91.7592 20.24 90.3592 22.32 89.3592 24.04C88.3592 25.72 87.7392 26.78 87.4992 27.22C87.3392 27.5 87.1192 27.94 86.8392 28.54C86.5992 29.1 86.3592 29.68 86.1192 30.28C85.8792 30.84 85.6992 31.26 85.5792 31.54C85.3792 32.18 85.1792 32.62 84.9792 32.86C84.7792 33.06 84.6192 33.38 84.4992 33.82C84.4592 33.98 84.3792 34.3 84.2592 34.78C84.1792 35.26 84.1192 35.7 84.0792 36.1C84.0392 36.46 84.0392 36.6 84.0792 36.52L85.2192 35.8L87.4992 34.66L87.5592 34.6C87.9992 34.4 88.3192 34.3 88.5192 34.3C88.7192 34.3 88.9792 34.26 89.2992 34.18C89.6192 34.1 90.1192 33.84 90.7992 33.4C90.8392 33.4 91.0392 33.3 91.3992 33.1C91.7592 32.9 92.1192 32.7 92.4792 32.5C92.8792 32.26 93.0992 32.14 93.1392 32.14C93.5792 31.9 93.8192 31.78 93.8592 31.78C93.9392 31.78 94.0592 31.74 94.2192 31.66C94.3792 31.54 94.7992 31.26 95.4792 30.82C96.1992 30.34 96.7592 30.1 97.1592 30.1C97.4392 30.1 97.5792 30.2 97.5792 30.4C97.5792 30.56 97.4392 30.8 97.1592 31.12C96.9192 31.44 96.4792 31.82 95.8392 32.26C94.7192 33.02 93.5792 33.74 92.4192 34.42C91.2992 35.06 90.1592 35.72 88.9992 36.4C88.3592 36.76 87.9192 37 87.6792 37.12C87.4392 37.2 87.2792 37.24 87.1992 37.24C87.1592 37.24 87.0792 37.28 86.9592 37.36C86.8392 37.44 86.5792 37.68 86.1792 38.08L86.1192 38.14C86.0392 38.14 85.8392 38.28 85.5192 38.56C85.1992 38.84 84.9992 39.02 84.9192 39.1C84.7592 39.26 84.5992 39.46 84.4392 39.7C84.3192 39.94 84.1392 40.12 83.8992 40.24C83.6192 40.4 83.2592 40.48 82.8192 40.48ZM99.5559 40.12C99.3959 40.12 99.2559 40.1 99.1359 40.06C99.0159 40.02 98.9159 40 98.8359 40C98.3159 39.92 98.0559 39.4 98.0559 38.44C98.0559 38.08 98.0959 37.68 98.1759 37.24C98.2959 36.76 98.4759 36.24 98.7159 35.68V35.74C98.7559 35.54 98.8359 35.38 98.9559 35.26C99.0759 35.1 99.1159 34.98 99.0759 34.9C99.0759 34.7 99.1959 34.32 99.4359 33.76C99.7159 33.16 99.8559 32.84 99.8559 32.8V32.74C99.9359 32.54 100.096 32.22 100.336 31.78C100.576 31.3 100.736 30.98 100.816 30.82C101.136 30.18 101.376 29.78 101.536 29.62C101.696 29.46 101.836 29.34 101.956 29.26C102.116 29.18 102.296 28.94 102.496 28.54L102.556 28.48C102.556 28.48 102.576 28.46 102.616 28.42C102.656 28.34 102.696 28.26 102.736 28.18C102.576 28.22 102.416 28.28 102.256 28.36C102.136 28.4 101.956 28.46 101.716 28.54H101.656C101.456 28.54 101.176 28.46 100.816 28.3C100.456 28.1 100.236 27.9 100.156 27.7C100.076 27.46 100.036 27.28 100.036 27.16C100.036 26.64 100.236 26.08 100.636 25.48C101.036 24.84 101.436 24.44 101.836 24.28H101.896C102.096 24.28 102.356 24.2 102.676 24.04C102.996 23.88 103.276 23.76 103.516 23.68H103.636C103.756 23.68 103.836 23.62 103.876 23.5C103.916 23.34 104.076 23.24 104.356 23.2C104.356 23.2 104.616 23.1 105.136 22.9C105.696 22.7 106.176 22.54 106.576 22.42C106.736 22.18 106.896 21.96 107.056 21.76C107.216 21.56 107.276 21.44 107.236 21.4C107.396 21.04 107.596 20.7 107.836 20.38C108.116 20.02 108.396 19.68 108.676 19.36H108.616C109.456 18.12 110.496 16.56 111.736 14.68C112.976 12.8 114.276 11.08 115.636 9.52C117.076 7.88 118.496 6.68 119.896 5.92C121.336 5.12 122.636 4.66 123.796 4.54C124.476 4.54 125.236 4.7 126.076 5.02C126.916 5.34 127.516 5.66 127.876 5.98C128.596 6.62 129.196 7.34 129.676 8.14C130.156 8.94 130.396 9.68 130.396 10.36C130.396 10.76 130.316 11.12 130.156 11.44V11.5C129.996 11.78 129.736 11.92 129.376 11.92C129.096 11.92 128.836 11.84 128.596 11.68C128.396 11.48 128.296 11.24 128.296 10.96C128.256 10.36 127.956 9.72 127.396 9.04C126.876 8.36 126.356 8.04 125.836 8.08C125.676 8.04 125.416 8.02 125.056 8.02C124.296 8.02 123.456 8.24 122.536 8.68C121.656 9.12 120.676 9.9 119.596 11.02C118.516 12.18 117.636 13.1 116.956 13.78C116.276 14.46 115.676 15.04 115.156 15.52C114.636 16 114.056 16.54 113.416 17.14C113.256 17.54 112.916 18.12 112.396 18.88C111.876 19.6 111.316 20.32 110.716 21.04C110.916 20.96 110.936 20.96 110.776 21.04C110.656 21.12 110.676 21.16 110.836 21.16C111.036 21.16 111.336 21.14 111.736 21.1C112.176 21.06 112.496 21.04 112.696 21.04C112.696 21 112.696 20.94 112.696 20.86C112.736 20.78 112.816 20.72 112.936 20.68H112.876L115.036 20.14C115.836 19.98 116.636 19.8 117.436 19.6C118.236 19.36 119.016 19.2 119.776 19.12C120.016 19.12 120.316 19.06 120.676 18.94C121.036 18.78 121.356 18.7 121.636 18.7H122.656C122.896 18.7 123.116 18.76 123.316 18.88C123.556 19 123.676 19.16 123.676 19.36C123.636 19.64 123.336 19.98 122.776 20.38C122.256 20.74 121.876 20.94 121.636 20.98C121.476 20.98 121.216 21 120.856 21.04C120.536 21.08 120.136 21.14 119.656 21.22C119.216 21.3 118.916 21.36 118.756 21.4C118.636 21.44 118.516 21.48 118.396 21.52C118.276 21.56 117.976 21.64 117.496 21.76C116.256 22.04 114.936 22.46 113.536 23.02C112.176 23.54 110.636 24.16 108.916 24.88C108.436 25.08 108.096 25.26 107.896 25.42C107.736 25.58 107.316 25.9 106.636 26.38C106.276 27.02 105.976 27.62 105.736 28.18C105.536 28.7 105.276 29.22 104.956 29.74H104.896C104.576 30.18 104.236 30.78 103.876 31.54C103.556 32.3 103.236 33.08 102.916 33.88C102.636 34.64 102.416 35.28 102.256 35.8C102.096 36.32 102.036 36.56 102.076 36.52C102.156 36.48 102.196 36.5 102.196 36.58C102.236 36.62 102.216 36.68 102.136 36.76C101.976 36.96 101.856 37.24 101.776 37.6C101.696 37.96 101.596 38.26 101.476 38.5C101.316 38.74 101.136 38.96 100.936 39.16C100.776 39.32 100.636 39.44 100.516 39.52C100.356 39.76 100.196 39.92 100.036 40C99.8759 40.08 99.7159 40.12 99.5559 40.12ZM135.256 14.44C134.896 14.44 134.656 14.32 134.536 14.08C134.456 13.8 134.396 13.54 134.356 13.3C134.316 13.1 134.276 12.88 134.236 12.64C134.196 12.4 134.176 12.16 134.176 11.92C134.176 11.6 134.216 11.32 134.296 11.08C134.416 10.8 134.616 10.58 134.896 10.42C135.816 9.94 136.596 9.6 137.236 9.4C137.876 9.2 138.396 9.1 138.796 9.1C139.396 9.1 139.796 9.28 139.996 9.64C140.196 10 140.296 10.46 140.296 11.02C140.296 11.18 140.296 11.34 140.296 11.5C140.296 11.62 140.276 11.78 140.236 11.98C140.116 12.5 139.716 12.86 139.036 13.06C138.396 13.26 137.856 13.46 137.416 13.66C137.136 13.82 136.796 14 136.396 14.2C136.036 14.36 135.696 14.44 135.376 14.44H135.256ZM122.176 40.3C122.016 40.3 121.876 40.18 121.756 39.94C121.676 39.62 121.576 39.34 121.456 39.1C121.336 38.86 121.276 38.5 121.276 38.02C121.276 37.46 121.396 36.64 121.636 35.56C121.876 34.48 122.336 32.86 123.016 30.7C123.536 29.06 124.016 27.74 124.456 26.74C124.896 25.74 125.356 24.78 125.836 23.86V23.8C125.956 23.64 126.136 23.5 126.376 23.38C126.616 23.26 126.776 23.14 126.856 23.02H126.796C126.876 22.94 126.896 22.82 126.856 22.66C126.816 22.46 126.796 22.28 126.796 22.12C126.796 21.68 126.936 21.32 127.216 21.04C127.536 20.72 127.856 20.42 128.176 20.14C128.496 19.82 128.996 19.46 129.676 19.06C130.356 18.66 131.156 18.38 132.076 18.22C132.196 18.18 132.316 18.16 132.436 18.16C132.556 18.16 132.676 18.16 132.796 18.16C133.476 18.16 133.996 18.3 134.356 18.58C134.716 18.86 134.976 19.16 135.136 19.48C135.216 19.56 135.296 19.66 135.376 19.78C135.456 19.9 135.496 20.04 135.496 20.2C135.496 20.36 135.416 20.58 135.256 20.86C135.136 21.1 134.856 21.42 134.416 21.82C134.216 22.06 133.916 22.32 133.516 22.6C133.156 22.84 132.816 23.12 132.496 23.44C132.096 23.84 131.716 24.28 131.356 24.76C130.996 25.24 130.656 25.7 130.336 26.14C130.056 26.54 129.756 26.92 129.436 27.28C129.116 27.6 128.796 27.94 128.476 28.3C128.316 28.46 128.196 28.76 128.116 29.2C128.036 29.6 127.856 29.94 127.576 30.22C127.296 30.58 126.976 30.86 126.616 31.06C126.296 31.26 126.036 31.54 125.836 31.9V31.84C125.636 32.2 125.416 32.62 125.176 33.1C124.936 33.58 124.696 34.04 124.456 34.48C124.056 35.28 123.796 35.88 123.676 36.28C123.556 36.64 123.496 36.92 123.496 37.12C123.496 37.36 123.536 37.52 123.616 37.6C123.736 37.68 123.756 37.88 123.676 38.2C123.516 38.56 123.296 39 123.016 39.52C122.776 40.04 122.496 40.3 122.176 40.3ZM135.209 40C134.849 39.88 134.669 39.46 134.669 38.74C134.669 38.3 134.729 37.8 134.849 37.24C135.009 36.68 135.229 36.02 135.509 35.26V35.44C135.589 35.44 135.669 35.3 135.749 35.02C135.829 34.74 135.849 34.58 135.809 34.54C135.849 34.3 136.009 34.04 136.289 33.76C136.609 33.44 136.749 33.26 136.709 33.22V33.16C136.789 33 136.789 32.9 136.709 32.86C136.629 32.82 136.649 32.66 136.769 32.38C137.209 31.46 137.609 30.62 137.969 29.86C138.329 29.06 138.689 28.34 139.049 27.7C139.049 27.7 139.089 27.56 139.169 27.28C139.249 27 139.349 26.74 139.469 26.5V26.62C139.509 26.46 139.609 26.32 139.769 26.2C139.929 26.04 140.029 25.94 140.069 25.9C140.269 25.54 140.369 25.28 140.369 25.12C140.369 25.04 140.349 25 140.309 25C140.269 25 140.249 24.98 140.249 24.94C140.249 24.9 140.289 24.82 140.369 24.7C140.449 24.54 140.609 24.3 140.849 23.98H140.789C140.949 23.78 141.189 23.42 141.509 22.9C141.869 22.38 142.209 21.86 142.529 21.34C142.889 20.82 143.109 20.48 143.189 20.32C143.509 19.64 144.009 19.14 144.689 18.82C145.409 18.46 146.109 18.28 146.789 18.28C147.429 18.28 147.969 18.44 148.409 18.76C148.889 19.04 149.129 19.52 149.129 20.2C149.129 20.84 148.969 21.28 148.649 21.52C148.369 21.76 147.969 22.02 147.449 22.3C146.969 22.54 146.429 22.98 145.829 23.62C144.669 24.86 143.889 25.88 143.489 26.68C143.089 27.44 142.849 28.24 142.769 29.08C142.929 28.88 143.109 28.7 143.309 28.54C144.149 27.7 145.089 26.94 146.129 26.26C147.209 25.54 148.569 24.68 150.209 23.68H150.329C150.369 23.68 150.629 23.5 151.109 23.14C151.629 22.78 152.149 22.42 152.669 22.06C153.229 21.66 153.569 21.46 153.689 21.46C153.689 21.46 153.929 21.34 154.409 21.1C154.889 20.86 155.389 20.66 155.909 20.5C157.669 19.9 159.189 19.6 160.469 19.6C161.389 19.6 162.069 19.76 162.509 20.08C162.869 20.32 163.049 20.8 163.049 21.52C163.049 22.04 162.929 22.64 162.689 23.32V23.2C162.649 23.2 162.569 23.36 162.449 23.68C162.329 23.96 162.209 24.2 162.089 24.4C162.009 24.52 161.869 24.74 161.669 25.06C161.469 25.38 161.349 25.58 161.309 25.66V25.6C161.069 26.04 160.849 26.38 160.649 26.62C160.449 26.82 160.209 27.1 159.929 27.46C159.529 27.94 158.989 28.68 158.309 29.68C157.629 30.64 156.969 31.68 156.329 32.8C155.729 33.88 155.329 34.86 155.129 35.74C155.089 35.98 155.009 36.26 154.889 36.58C154.809 36.86 154.789 37.1 154.829 37.3V37.36C154.829 37.44 154.909 37.56 155.069 37.72C155.229 37.84 155.329 37.94 155.369 38.02C155.529 38.18 155.609 38.36 155.609 38.56C155.609 38.8 155.469 39.02 155.189 39.22C154.949 39.38 154.489 39.42 153.809 39.34C153.369 39.34 153.069 39.22 152.909 38.98C152.789 38.74 152.649 38.48 152.489 38.2V38.14C152.489 38.06 152.469 37.98 152.429 37.9C152.429 37.82 152.429 37.7 152.429 37.54C152.469 37.46 152.409 37.42 152.249 37.42C152.129 37.38 151.989 37.22 151.829 36.94C151.829 36.94 151.809 36.74 151.769 36.34C151.729 35.94 151.709 35.66 151.709 35.5C151.709 35.1 151.849 34.62 152.129 34.06C152.409 33.46 152.629 32.94 152.789 32.5C152.989 32.06 153.409 31.42 154.049 30.58C154.689 29.74 155.349 28.88 156.029 28C156.749 27.08 157.289 26.32 157.649 25.72C158.049 25.04 158.249 24.44 158.249 23.92C158.249 23.44 158.109 23.1 157.829 22.9C157.549 22.66 157.229 22.54 156.869 22.54C156.669 22.54 156.369 22.56 155.969 22.6C155.609 22.64 155.249 22.74 154.889 22.9C154.729 22.94 154.449 23.1 154.049 23.38C153.689 23.66 153.329 23.92 152.969 24.16C152.609 24.4 152.369 24.52 152.249 24.52C151.969 24.72 151.709 24.92 151.469 25.12C151.229 25.28 150.909 25.48 150.509 25.72L148.649 26.92C146.649 28.2 144.749 29.68 142.949 31.36C141.189 33.04 139.669 34.76 138.389 36.52C138.229 36.72 138.109 37 138.029 37.36C137.949 37.72 137.849 38.02 137.729 38.26C137.569 38.54 137.409 38.74 137.249 38.86C137.089 38.94 136.969 39.02 136.889 39.1C136.569 39.5 136.249 39.76 135.929 39.88C135.649 39.96 135.409 40 135.209 40ZM177.008 14.44C176.648 14.44 176.408 14.32 176.288 14.08C176.208 13.8 176.148 13.54 176.108 13.3C176.068 13.1 176.028 12.88 175.988 12.64C175.948 12.4 175.928 12.16 175.928 11.92C175.928 11.6 175.968 11.32 176.048 11.08C176.168 10.8 176.368 10.58 176.648 10.42C177.568 9.94 178.348 9.6 178.988 9.4C179.628 9.2 180.148 9.1 180.548 9.1C181.148 9.1 181.548 9.28 181.748 9.64C181.948 10 182.048 10.46 182.048 11.02C182.048 11.18 182.048 11.34 182.048 11.5C182.048 11.62 182.028 11.78 181.988 11.98C181.868 12.5 181.468 12.86 180.788 13.06C180.148 13.26 179.608 13.46 179.168 13.66C178.888 13.82 178.548 14 178.148 14.2C177.788 14.36 177.448 14.44 177.128 14.44H177.008ZM163.928 40.3C163.768 40.3 163.628 40.18 163.508 39.94C163.428 39.62 163.328 39.34 163.208 39.1C163.088 38.86 163.028 38.5 163.028 38.02C163.028 37.46 163.148 36.64 163.388 35.56C163.628 34.48 164.088 32.86 164.768 30.7C165.288 29.06 165.768 27.74 166.208 26.74C166.648 25.74 167.108 24.78 167.588 23.86V23.8C167.708 23.64 167.888 23.5 168.128 23.38C168.368 23.26 168.528 23.14 168.608 23.02H168.548C168.628 22.94 168.648 22.82 168.608 22.66C168.568 22.46 168.548 22.28 168.548 22.12C168.548 21.68 168.688 21.32 168.968 21.04C169.288 20.72 169.608 20.42 169.928 20.14C170.248 19.82 170.748 19.46 171.428 19.06C172.108 18.66 172.908 18.38 173.828 18.22C173.948 18.18 174.068 18.16 174.188 18.16C174.308 18.16 174.428 18.16 174.548 18.16C175.228 18.16 175.748 18.3 176.108 18.58C176.468 18.86 176.728 19.16 176.888 19.48C176.968 19.56 177.048 19.66 177.128 19.78C177.208 19.9 177.248 20.04 177.248 20.2C177.248 20.36 177.168 20.58 177.008 20.86C176.888 21.1 176.608 21.42 176.168 21.82C175.968 22.06 175.668 22.32 175.268 22.6C174.908 22.84 174.568 23.12 174.248 23.44C173.848 23.84 173.468 24.28 173.108 24.76C172.748 25.24 172.408 25.7 172.088 26.14C171.808 26.54 171.508 26.92 171.188 27.28C170.868 27.6 170.548 27.94 170.228 28.3C170.068 28.46 169.948 28.76 169.868 29.2C169.788 29.6 169.608 29.94 169.328 30.22C169.048 30.58 168.728 30.86 168.368 31.06C168.048 31.26 167.788 31.54 167.588 31.9V31.84C167.388 32.2 167.168 32.62 166.928 33.1C166.688 33.58 166.448 34.04 166.208 34.48C165.808 35.28 165.548 35.88 165.428 36.28C165.308 36.64 165.248 36.92 165.248 37.12C165.248 37.36 165.288 37.52 165.368 37.6C165.488 37.68 165.508 37.88 165.428 38.2C165.268 38.56 165.048 39 164.768 39.52C164.528 40.04 164.248 40.3 163.928 40.3Z" fill="#E5784D"/>
</svg>
